<svg width="110" height="121" viewBox="0 0 110 121" fill="none" xmlns="http://www.w3.org/2000/svg">
<path d="M1 30.5L53.5 1L106 30.5V89L53.5 120L1 89V30.5Z" stroke="#0B615E"/>
<path d="M107.341 100.136C106.125 101.864 103.245 106.984 98.2533 106.984C71.9493 106.984 67.9813 26.792 67.9813 24.36C67.9813 22.568 67.5333 17.832 59.8533 17.832C58.1253 17.832 55.0533 34.6 50.1253 51.304C47.5653 51.048 45.0053 50.792 42.6373 50.792C25.9973 50.792 15.8212 59.112 15.8212 69.608C15.8212 78.376 20.6212 86.888 28.8133 86.888C41.6772 86.888 49.4853 69.16 54.0933 53.8C56.9093 54.248 59.6613 54.696 61.9653 55.208C65.8053 79.272 74.5093 112.232 93.3893 112.232C98.9573 112.232 105.229 109.032 109.325 100.84C110.349 98.792 108.045 98.408 107.341 100.136ZM28.9413 84.456C20.4932 84.456 18.7012 74.664 18.7012 69.48C18.7012 63.784 23.1812 52.584 42.8933 52.584C44.8773 52.584 47.0533 52.84 49.5493 53.16C44.6213 69.032 38.0933 84.456 28.9413 84.456ZM54.5413 51.944C56.2693 46.312 57.3573 41 58.1253 37.16C58.5732 34.92 58.9573 32.808 59.2133 30.888C59.2773 32.872 59.4693 34.984 59.6613 37.352C60.1093 41.448 60.6213 46.952 61.6453 53.352C59.6613 52.904 57.1653 52.392 54.5413 51.944Z" fill="#0B615E"/>
</svg>
